<svg xmlns="http://www.w3.org/2000/svg" width="2560" height="1440" viewBox="0 0 2560 1440" fill="none">
<path d="M195.299 256.41C195.299 247.347 202.656 240 211.732 240H466.807C475.883 240 483.24 247.347 483.24 256.41V316.343C483.24 325.406 475.883 332.753 466.807 332.753H211.732C202.656 332.753 195.299 325.406 195.299 316.343V256.41Z" fill="url(#paint0_linear_3463_108)"/>
<path d="M151 367C151 357.937 158.357 350.59 167.433 350.59H622.567C631.643 350.59 639 357.937 639 367V406.955C639 416.018 631.643 423.365 622.567 423.365H167.433C158.357 423.365 151 416.018 151 406.955V367Z" fill="url(#paint1_linear_3463_108)"/>
<path d="M351.059 457.612C351.059 448.549 358.416 441.202 367.492 441.202H578.268C587.344 441.202 594.701 448.549 594.701 457.612V477.59C594.701 486.653 587.344 494 578.268 494H367.492C358.416 494 351.059 486.653 351.059 477.59V457.612Z" fill="url(#paint2_linear_3463_108)"/>
<path d="M288.898 350.526C289.249 350.568 289.607 350.59 289.969 350.59H371.422C376.354 350.59 380.353 346.597 380.353 341.671C380.353 336.746 376.354 332.753 371.422 332.753H289.969C289.607 332.753 289.249 332.774 288.898 332.816C293.325 333.345 296.757 337.108 296.757 341.671C296.757 346.235 293.325 349.998 288.898 350.526Z" fill="url(#paint3_linear_3463_108)"/>
<path d="M396.072 332.816C395.72 332.774 395.363 332.753 395 332.753L313.548 332.753C308.615 332.753 304.616 336.746 304.616 341.671C304.616 346.597 308.615 350.59 313.548 350.59L395 350.59C395.363 350.59 395.72 350.568 396.072 350.526C391.644 349.998 388.212 346.235 388.212 341.671C388.212 337.108 391.644 333.345 396.072 332.816Z" fill="url(#paint4_linear_3463_108)"/>
<path d="M417.507 441.139C417.858 441.181 418.216 441.202 418.578 441.202H500.031C504.963 441.202 508.962 437.209 508.962 432.284C508.962 427.358 504.963 423.365 500.031 423.365H418.578C418.216 423.365 417.858 423.387 417.507 423.429C421.934 423.957 425.366 427.72 425.366 432.284C425.366 436.847 421.934 440.61 417.507 441.139Z" fill="url(#paint5_linear_3463_108)"/>
<path d="M524.681 423.429C524.329 423.387 523.972 423.365 523.609 423.365H442.157C437.224 423.365 433.225 427.358 433.225 432.284C433.225 437.209 437.224 441.202 442.157 441.202H523.609C523.972 441.202 524.329 441.181 524.681 441.139C520.254 440.61 516.821 436.847 516.821 432.284C516.821 427.72 520.254 423.957 524.681 423.429Z" fill="url(#paint6_linear_3463_108)"/>
<path d="M1439.78 572.154C1439.78 563.785 1446.55 557 1454.91 557H1689.71C1698.07 557 1704.84 563.785 1704.84 572.154V627.497C1704.84 635.867 1698.07 642.651 1689.71 642.651H1454.91C1446.55 642.651 1439.78 635.867 1439.78 627.497V572.154Z" fill="url(#paint7_linear_3463_108)"/>
<path d="M1399 674.276C1399 665.907 1405.77 659.122 1414.13 659.122H1775.87C1784.23 659.122 1791 665.907 1791 674.276V729.62C1791 737.989 1784.23 744.773 1775.87 744.773H1414.13C1405.77 744.773 1399 737.989 1399 729.62V674.276Z" fill="url(#paint8_linear_3463_108)"/>
<path d="M1552.91 776.398C1552.91 768.029 1559.68 761.245 1568.03 761.245H1762.06C1770.42 761.245 1777.19 768.029 1777.19 776.398V794.846C1777.19 803.215 1770.42 810 1762.06 810H1568.03C1559.68 810 1552.91 803.215 1552.91 794.846V776.398Z" fill="url(#paint9_linear_3463_108)"/>
<path d="M1525.94 659.064C1526.26 659.102 1526.59 659.122 1526.93 659.122H1601.91C1606.45 659.122 1610.13 655.435 1610.13 650.887C1610.13 646.338 1606.45 642.651 1601.91 642.651H1526.93C1526.59 642.651 1526.26 642.671 1525.94 642.71C1530.02 643.198 1533.17 646.673 1533.17 650.887C1533.17 655.101 1530.02 658.575 1525.94 659.064Z" fill="url(#paint10_linear_3463_108)"/>
<path d="M1624.6 642.71C1624.27 642.671 1623.94 642.651 1623.61 642.651L1548.63 642.651C1544.09 642.651 1540.41 646.338 1540.41 650.887C1540.41 655.435 1544.09 659.122 1548.63 659.122L1623.61 659.122C1623.94 659.122 1624.27 659.102 1624.6 659.064C1620.52 658.575 1617.36 655.101 1617.36 650.887C1617.36 646.673 1620.52 643.198 1624.6 642.71Z" fill="url(#paint11_linear_3463_108)"/>
<path d="M1614.07 761.186C1614.4 761.225 1614.73 761.245 1615.06 761.245H1690.04C1694.58 761.245 1698.26 757.558 1698.26 753.009C1698.26 748.461 1694.58 744.773 1690.04 744.773H1615.06C1614.73 744.773 1614.4 744.793 1614.07 744.832C1618.15 745.32 1621.31 748.795 1621.31 753.009C1621.31 757.223 1618.15 760.698 1614.07 761.186Z" fill="url(#paint12_linear_3463_108)"/>
<path d="M1712.73 744.832C1712.41 744.793 1712.08 744.773 1711.74 744.773H1636.77C1632.22 744.773 1628.54 748.461 1628.54 753.009C1628.54 757.558 1632.22 761.245 1636.77 761.245H1711.74C1712.08 761.245 1712.41 761.225 1712.73 761.186C1708.66 760.698 1705.5 757.223 1705.5 753.009C1705.5 748.795 1708.66 745.32 1712.73 744.832Z" fill="url(#paint13_linear_3463_108)"/>
<path d="M868.728 15.0938C868.728 6.7577 875.493 0 883.837 0H1118.35C1126.7 0 1133.46 6.7577 1133.46 15.0938V70.2188C1133.46 78.5548 1126.7 85.3125 1118.35 85.3125H883.837C875.493 85.3125 868.728 78.5548 868.728 70.2188V15.0938Z" fill="url(#paint14_linear_3463_108)"/>
<path d="M828 116.812C828 108.476 834.765 101.719 843.109 101.719H1204.41C1212.75 101.719 1219.52 108.476 1219.52 116.812V171.938C1219.52 180.274 1212.75 187.031 1204.41 187.031H843.109C834.765 187.031 828 180.274 828 171.938V116.812Z" fill="url(#paint15_linear_3463_108)"/>
<path d="M930.478 218.531C930.478 210.195 937.243 203.438 945.587 203.438H1216.89C1225.24 203.438 1232 210.195 1232 218.531V236.906C1232 245.242 1225.24 252 1216.89 252H945.587C937.243 252 930.478 245.242 930.478 236.906V218.531Z" fill="url(#paint16_linear_3463_108)"/>
<path d="M954.784 101.66C955.107 101.699 955.436 101.719 955.769 101.719H1030.66C1035.19 101.719 1038.87 98.0461 1038.87 93.5156C1038.87 88.9852 1035.19 85.3125 1030.66 85.3125H955.769C955.436 85.3125 955.107 85.3324 954.784 85.371C958.854 85.8573 962.01 89.3183 962.01 93.5156C962.01 97.7129 958.854 101.174 954.784 101.66Z" fill="url(#paint17_linear_3463_108)"/>
<path d="M1053.32 85.371C1053 85.3324 1052.67 85.3125 1052.33 85.3125L977.447 85.3125C972.912 85.3125 969.236 88.9852 969.236 93.5156C969.236 98.0461 972.912 101.719 977.447 101.719L1052.33 101.719C1052.67 101.719 1053 101.699 1053.32 101.66C1049.25 101.174 1046.09 97.7129 1046.09 93.5156C1046.09 89.3183 1049.25 85.8573 1053.32 85.371Z" fill="url(#paint18_linear_3463_108)"/>
<path d="M1042.81 203.379C1043.13 203.418 1043.46 203.438 1043.8 203.438H1118.68C1123.22 203.438 1126.89 199.765 1126.89 195.234C1126.89 190.704 1123.22 187.031 1118.68 187.031H1043.8C1043.46 187.031 1043.13 187.051 1042.81 187.09C1046.88 187.576 1050.04 191.037 1050.04 195.234C1050.04 199.432 1046.88 202.893 1042.81 203.379Z" fill="url(#paint19_linear_3463_108)"/>
<path d="M1141.35 187.09C1141.02 187.051 1140.69 187.031 1140.36 187.031H1065.47C1060.94 187.031 1057.26 190.704 1057.26 195.234C1057.26 199.765 1060.94 203.438 1065.47 203.438H1140.36C1140.69 203.437 1141.02 203.418 1141.35 203.379C1137.28 202.893 1134.12 199.432 1134.12 195.234C1134.12 191.037 1137.28 187.576 1141.35 187.09Z" fill="url(#paint20_linear_3463_108)"/>
<path d="M2015.39 1023.7C2015.39 1015.58 2021.97 1009 2030.08 1009H2319.31C2327.43 1009 2334 1015.58 2334 1023.7V1161.75C2334 1169.87 2327.43 1176.45 2319.31 1176.45H2030.08C2021.97 1176.45 2015.39 1169.87 2015.39 1161.75V1023.7Z" fill="url(#paint21_linear_3463_108)"/>
<path d="M1843 1207.12C1843 1199.01 1849.57 1192.43 1857.69 1192.43H2243.33C2251.44 1192.43 2258.02 1199.01 2258.02 1207.12V1248.03C2258.02 1256.15 2251.44 1262.73 2243.33 1262.73H1857.69C1849.57 1262.73 1843 1256.15 1843 1248.03V1207.12Z" fill="url(#paint22_linear_3463_108)"/>
<path d="M2044.76 1293.41C2044.76 1285.29 2051.34 1278.71 2059.45 1278.71H2247.8C2255.91 1278.71 2262.49 1285.29 2262.49 1293.41V1311.3C2262.49 1319.42 2255.91 1326 2247.8 1326H2059.45C2051.34 1326 2044.76 1319.42 2044.76 1311.3V1293.41Z" fill="url(#paint23_linear_3463_108)"/>
<path d="M2099.04 1192.37C2099.35 1192.41 2099.67 1192.43 2099.99 1192.43H2172.78C2177.19 1192.43 2180.76 1188.85 2180.76 1184.44C2180.76 1180.02 2177.19 1176.45 2172.78 1176.45H2099.99C2099.67 1176.45 2099.35 1176.47 2099.04 1176.5C2102.99 1176.98 2106.06 1180.35 2106.06 1184.44C2106.06 1188.52 2102.99 1191.89 2099.04 1192.37Z" fill="url(#paint24_linear_3463_108)"/>
<path d="M2194.81 1176.5C2194.49 1176.47 2194.18 1176.45 2193.85 1176.45H2121.06C2116.66 1176.45 2113.08 1180.02 2113.08 1184.44C2113.08 1188.85 2116.66 1192.43 2121.06 1192.43H2193.85C2194.18 1192.43 2194.49 1192.41 2194.81 1192.37C2190.85 1191.89 2187.79 1188.52 2187.79 1184.44C2187.79 1180.35 2190.85 1176.98 2194.81 1176.5Z" fill="url(#paint25_linear_3463_108)"/>
<path d="M2138.62 1278.65C2138.94 1278.69 2139.26 1278.71 2139.58 1278.71H2212.37C2216.78 1278.71 2220.35 1275.13 2220.35 1270.72C2220.35 1266.3 2216.78 1262.73 2212.37 1262.73H2139.58C2139.26 1262.73 2138.94 1262.75 2138.62 1262.78C2142.58 1263.26 2145.65 1266.63 2145.65 1270.72C2145.65 1274.8 2142.58 1278.18 2138.62 1278.65Z" fill="url(#paint26_linear_3463_108)"/>
<path d="M2234.4 1262.78C2234.08 1262.75 2233.76 1262.73 2233.44 1262.73H2160.65C2156.24 1262.73 2152.67 1266.3 2152.67 1270.72C2152.67 1275.13 2156.24 1278.71 2160.65 1278.71H2233.44C2233.76 1278.71 2234.08 1278.69 2234.4 1278.65C2230.44 1278.18 2227.37 1274.8 2227.37 1270.72C2227.37 1266.63 2230.44 1263.26 2234.4 1262.78Z" fill="url(#paint27_linear_3463_108)"/>
<path d="M147.64 1025.54C147.64 1016.4 155.054 1009 164.2 1009H421.24C430.386 1009 437.8 1016.4 437.8 1025.54V1152.82C437.8 1161.95 430.386 1169.35 421.24 1169.35H164.2C155.054 1169.35 147.64 1161.95 147.64 1152.82V1025.54Z" fill="white"/>
<path d="M103 1203.87C103 1194.74 110.414 1187.33 119.56 1187.33H358.6C367.746 1187.33 375.16 1194.74 375.16 1203.87V1264.27C375.16 1273.41 367.746 1280.81 358.6 1280.81H119.56C110.414 1280.81 103 1273.41 103 1264.27V1203.87Z" fill="white"/>
<path d="M271.48 1315.33C271.48 1306.19 278.894 1298.79 288.04 1298.79H500.44C509.586 1298.79 517 1306.19 517 1315.33V1335.46C517 1344.6 509.586 1352 500.44 1352H288.04C278.894 1352 271.48 1344.6 271.48 1335.46V1315.33Z" fill="white"/>
<path d="M241.96 1187.27C242.314 1187.31 242.674 1187.33 243.04 1187.33H325.12C330.091 1187.33 334.12 1183.31 334.12 1178.34C334.12 1173.38 330.091 1169.35 325.12 1169.35H243.04C242.674 1169.35 242.314 1169.38 241.96 1169.42C246.421 1169.95 249.88 1173.74 249.88 1178.34C249.88 1182.94 246.421 1186.73 241.96 1187.27Z" fill="white"/>
<path d="M349.96 1169.42C349.606 1169.38 349.246 1169.35 348.88 1169.35L266.8 1169.35C261.829 1169.35 257.8 1173.38 257.8 1178.34C257.8 1183.31 261.829 1187.33 266.8 1187.33L348.88 1187.33C349.246 1187.33 349.606 1187.31 349.96 1187.27C345.499 1186.73 342.04 1182.94 342.04 1178.34C342.04 1173.74 345.499 1169.95 349.96 1169.42Z" fill="white"/>
<path d="M338.44 1298.72C338.794 1298.77 339.155 1298.79 339.52 1298.79H421.6C426.571 1298.79 430.6 1294.76 430.6 1289.8C430.6 1284.84 426.571 1280.81 421.6 1280.81H339.52C339.155 1280.81 338.794 1280.83 338.44 1280.88C342.901 1281.41 346.36 1285.2 346.36 1289.8C346.36 1294.4 342.901 1298.19 338.44 1298.72Z" fill="white"/>
<path d="M446.44 1280.88C446.086 1280.83 445.726 1280.81 445.36 1280.81H363.28C358.309 1280.81 354.28 1284.84 354.28 1289.8C354.28 1294.76 358.309 1298.79 363.28 1298.79H445.36C445.726 1298.79 446.086 1298.77 446.44 1298.72C441.979 1298.19 438.52 1294.4 438.52 1289.8C438.52 1285.2 441.979 1281.41 446.44 1280.88Z" fill="white"/>
<path d="M2148.2 128.411C2148.2 121.004 2154.21 115 2161.63 115H2370.08C2377.5 115 2383.51 121.004 2383.51 128.411V177.389C2383.51 184.796 2377.5 190.8 2370.08 190.8H2161.63C2154.21 190.8 2148.2 184.796 2148.2 177.389V128.411Z" fill="url(#paint28_linear_3463_108)"/>
<path d="M2112 218.788C2112 211.381 2118.01 205.377 2125.43 205.377H2446.57C2453.99 205.377 2460 211.381 2460 218.788V267.766C2460 275.173 2453.99 281.177 2446.57 281.177H2125.43C2118.01 281.177 2112 275.173 2112 267.766V218.788Z" fill="url(#paint29_linear_3463_108)"/>
<path d="M2248.63 309.165C2248.63 301.758 2254.64 295.754 2262.06 295.754H2434.31C2441.73 295.754 2447.74 301.758 2447.74 309.165V325.491C2447.74 332.897 2441.73 338.902 2434.31 338.902H2262.06C2254.64 338.902 2248.63 332.897 2248.63 325.491V309.165Z" fill="url(#paint30_linear_3463_108)"/>
<path d="M2140.03 366.889C2140.03 359.483 2146.04 353.478 2153.46 353.478H2394.02C2401.44 353.478 2407.45 359.483 2407.45 366.889V480.589C2407.45 487.996 2401.44 494 2394.02 494H2153.46C2146.04 494 2140.03 487.996 2140.03 480.589V366.889Z" fill="url(#paint31_linear_3463_108)"/>
<path d="M2224.69 205.325C2224.98 205.359 2225.27 205.377 2225.57 205.377H2292.13C2296.16 205.377 2299.43 202.114 2299.43 198.088C2299.43 194.063 2296.16 190.8 2292.13 190.8H2225.57C2225.27 190.8 2224.98 190.818 2224.69 190.852C2228.31 191.284 2231.11 194.359 2231.11 198.088C2231.11 201.818 2228.31 204.893 2224.69 205.325Z" fill="url(#paint32_linear_3463_108)"/>
<path d="M2312.28 190.852C2311.99 190.818 2311.7 190.8 2311.4 190.8L2244.84 190.8C2240.8 190.8 2237.54 194.063 2237.54 198.088C2237.54 202.114 2240.8 205.377 2244.84 205.377L2311.4 205.377C2311.7 205.377 2311.99 205.359 2312.28 205.325C2308.66 204.893 2305.85 201.818 2305.85 198.088C2305.85 194.359 2308.66 191.284 2312.28 190.852Z" fill="url(#paint33_linear_3463_108)"/>
<path d="M2302.93 295.702C2303.22 295.736 2303.51 295.754 2303.81 295.754H2370.37C2374.4 295.754 2377.67 292.491 2377.67 288.465C2377.67 284.44 2374.4 281.177 2370.37 281.177H2303.81C2303.51 281.177 2303.22 281.195 2302.93 281.229C2306.55 281.661 2309.36 284.736 2309.36 288.465C2309.36 292.195 2306.55 295.27 2302.93 295.702Z" fill="url(#paint34_linear_3463_108)"/>
<path d="M2390.52 281.229C2390.23 281.195 2389.94 281.177 2389.64 281.177H2323.08C2319.05 281.177 2315.78 284.44 2315.78 288.465C2315.78 292.491 2319.05 295.754 2323.08 295.754H2389.64C2389.94 295.754 2390.23 295.736 2390.52 295.702C2386.9 295.27 2384.09 292.195 2384.09 288.465C2384.09 284.736 2386.9 281.661 2390.52 281.229Z" fill="url(#paint35_linear_3463_108)"/>
<path d="M2262.64 353.427C2262.93 353.461 2263.22 353.478 2263.52 353.478H2330.08C2334.11 353.478 2337.38 350.215 2337.38 346.19C2337.38 342.165 2334.11 338.902 2330.08 338.902H2263.52C2263.22 338.902 2262.93 338.919 2262.64 338.953C2266.26 339.386 2269.07 342.461 2269.07 346.19C2269.07 349.919 2266.26 352.994 2262.64 353.427Z" fill="url(#paint36_linear_3463_108)"/>
<path d="M2350.23 338.953C2349.94 338.919 2349.65 338.902 2349.35 338.902H2282.79C2278.76 338.902 2275.49 342.165 2275.49 346.19C2275.49 350.215 2278.76 353.478 2282.79 353.478H2349.35C2349.65 353.478 2349.94 353.461 2350.23 353.427C2346.61 352.994 2343.81 349.919 2343.81 346.19C2343.81 342.461 2346.61 339.386 2350.23 338.953Z" fill="url(#paint37_linear_3463_108)"/>
<defs>
<linearGradient id="paint0_linear_3463_108" x1="395" y1="240" x2="395" y2="494" gradientUnits="userSpaceOnUse">
<stop offset="0.802885" stop-color="white"/>
<stop offset="1" stop-color="white" stop-opacity="0.04"/>
</linearGradient>
<linearGradient id="paint1_linear_3463_108" x1="395" y1="240" x2="395" y2="494" gradientUnits="userSpaceOnUse">
<stop offset="0.802885" stop-color="white"/>
<stop offset="1" stop-color="white" stop-opacity="0.04"/>
</linearGradient>
<linearGradient id="paint2_linear_3463_108" x1="395" y1="240" x2="395" y2="494" gradientUnits="userSpaceOnUse">
<stop offset="0.802885" stop-color="white"/>
<stop offset="1" stop-color="white" stop-opacity="0.04"/>
</linearGradient>
<linearGradient id="paint3_linear_3463_108" x1="395" y1="240" x2="395" y2="494" gradientUnits="userSpaceOnUse">
<stop offset="0.802885" stop-color="white"/>
<stop offset="1" stop-color="white" stop-opacity="0.04"/>
</linearGradient>
<linearGradient id="paint4_linear_3463_108" x1="395" y1="240" x2="395" y2="494" gradientUnits="userSpaceOnUse">
<stop offset="0.802885" stop-color="white"/>
<stop offset="1" stop-color="white" stop-opacity="0.04"/>
</linearGradient>
<linearGradient id="paint5_linear_3463_108" x1="395" y1="240" x2="395" y2="494" gradientUnits="userSpaceOnUse">
<stop offset="0.802885" stop-color="white"/>
<stop offset="1" stop-color="white" stop-opacity="0.04"/>
</linearGradient>
<linearGradient id="paint6_linear_3463_108" x1="395" y1="240" x2="395" y2="494" gradientUnits="userSpaceOnUse">
<stop offset="0.802885" stop-color="white"/>
<stop offset="1" stop-color="white" stop-opacity="0.04"/>
</linearGradient>
<linearGradient id="paint7_linear_3463_108" x1="1595" y1="557" x2="1595" y2="810" gradientUnits="userSpaceOnUse">
<stop offset="0.798077" stop-color="white"/>
<stop offset="1" stop-color="white" stop-opacity="0.04"/>
</linearGradient>
<linearGradient id="paint8_linear_3463_108" x1="1595" y1="557" x2="1595" y2="810" gradientUnits="userSpaceOnUse">
<stop offset="0.798077" stop-color="white"/>
<stop offset="1" stop-color="white" stop-opacity="0.04"/>
</linearGradient>
<linearGradient id="paint9_linear_3463_108" x1="1595" y1="557" x2="1595" y2="810" gradientUnits="userSpaceOnUse">
<stop offset="0.798077" stop-color="white"/>
<stop offset="1" stop-color="white" stop-opacity="0.04"/>
</linearGradient>
<linearGradient id="paint10_linear_3463_108" x1="1595" y1="557" x2="1595" y2="810" gradientUnits="userSpaceOnUse">
<stop offset="0.798077" stop-color="white"/>
<stop offset="1" stop-color="white" stop-opacity="0.04"/>
</linearGradient>
<linearGradient id="paint11_linear_3463_108" x1="1595" y1="557" x2="1595" y2="810" gradientUnits="userSpaceOnUse">
<stop offset="0.798077" stop-color="white"/>
<stop offset="1" stop-color="white" stop-opacity="0.04"/>
</linearGradient>
<linearGradient id="paint12_linear_3463_108" x1="1595" y1="557" x2="1595" y2="810" gradientUnits="userSpaceOnUse">
<stop offset="0.798077" stop-color="white"/>
<stop offset="1" stop-color="white" stop-opacity="0.04"/>
</linearGradient>
<linearGradient id="paint13_linear_3463_108" x1="1595" y1="557" x2="1595" y2="810" gradientUnits="userSpaceOnUse">
<stop offset="0.798077" stop-color="white"/>
<stop offset="1" stop-color="white" stop-opacity="0.04"/>
</linearGradient>
<linearGradient id="paint14_linear_3463_108" x1="1030" y1="0" x2="1030" y2="252" gradientUnits="userSpaceOnUse">
<stop offset="0.793269" stop-color="white"/>
<stop offset="1" stop-color="white" stop-opacity="0.06"/>
</linearGradient>
<linearGradient id="paint15_linear_3463_108" x1="1030" y1="0" x2="1030" y2="252" gradientUnits="userSpaceOnUse">
<stop offset="0.793269" stop-color="white"/>
<stop offset="1" stop-color="white" stop-opacity="0.06"/>
</linearGradient>
<linearGradient id="paint16_linear_3463_108" x1="1030" y1="0" x2="1030" y2="252" gradientUnits="userSpaceOnUse">
<stop offset="0.793269" stop-color="white"/>
<stop offset="1" stop-color="white" stop-opacity="0.06"/>
</linearGradient>
<linearGradient id="paint17_linear_3463_108" x1="1030" y1="0" x2="1030" y2="252" gradientUnits="userSpaceOnUse">
<stop offset="0.793269" stop-color="white"/>
<stop offset="1" stop-color="white" stop-opacity="0.06"/>
</linearGradient>
<linearGradient id="paint18_linear_3463_108" x1="1030" y1="0" x2="1030" y2="252" gradientUnits="userSpaceOnUse">
<stop offset="0.793269" stop-color="white"/>
<stop offset="1" stop-color="white" stop-opacity="0.06"/>
</linearGradient>
<linearGradient id="paint19_linear_3463_108" x1="1030" y1="0" x2="1030" y2="252" gradientUnits="userSpaceOnUse">
<stop offset="0.793269" stop-color="white"/>
<stop offset="1" stop-color="white" stop-opacity="0.06"/>
</linearGradient>
<linearGradient id="paint20_linear_3463_108" x1="1030" y1="0" x2="1030" y2="252" gradientUnits="userSpaceOnUse">
<stop offset="0.793269" stop-color="white"/>
<stop offset="1" stop-color="white" stop-opacity="0.06"/>
</linearGradient>
<linearGradient id="paint21_linear_3463_108" x1="2088.5" y1="1009" x2="2088.5" y2="1326" gradientUnits="userSpaceOnUse">
<stop offset="0.879808" stop-color="white"/>
<stop offset="1" stop-color="white" stop-opacity="0.04"/>
</linearGradient>
<linearGradient id="paint22_linear_3463_108" x1="2088.5" y1="1009" x2="2088.5" y2="1326" gradientUnits="userSpaceOnUse">
<stop offset="0.879808" stop-color="white"/>
<stop offset="1" stop-color="white" stop-opacity="0.04"/>
</linearGradient>
<linearGradient id="paint23_linear_3463_108" x1="2088.5" y1="1009" x2="2088.5" y2="1326" gradientUnits="userSpaceOnUse">
<stop offset="0.879808" stop-color="white"/>
<stop offset="1" stop-color="white" stop-opacity="0.04"/>
</linearGradient>
<linearGradient id="paint24_linear_3463_108" x1="2088.5" y1="1009" x2="2088.5" y2="1326" gradientUnits="userSpaceOnUse">
<stop offset="0.879808" stop-color="white"/>
<stop offset="1" stop-color="white" stop-opacity="0.04"/>
</linearGradient>
<linearGradient id="paint25_linear_3463_108" x1="2088.5" y1="1009" x2="2088.5" y2="1326" gradientUnits="userSpaceOnUse">
<stop offset="0.879808" stop-color="white"/>
<stop offset="1" stop-color="white" stop-opacity="0.04"/>
</linearGradient>
<linearGradient id="paint26_linear_3463_108" x1="2088.5" y1="1009" x2="2088.5" y2="1326" gradientUnits="userSpaceOnUse">
<stop offset="0.879808" stop-color="white"/>
<stop offset="1" stop-color="white" stop-opacity="0.04"/>
</linearGradient>
<linearGradient id="paint27_linear_3463_108" x1="2088.5" y1="1009" x2="2088.5" y2="1326" gradientUnits="userSpaceOnUse">
<stop offset="0.879808" stop-color="white"/>
<stop offset="1" stop-color="white" stop-opacity="0.04"/>
</linearGradient>
<linearGradient id="paint28_linear_3463_108" x1="2286" y1="115" x2="2286" y2="494" gradientUnits="userSpaceOnUse">
<stop offset="0.735577" stop-color="white"/>
<stop offset="1" stop-color="white" stop-opacity="0.06"/>
</linearGradient>
<linearGradient id="paint29_linear_3463_108" x1="2286" y1="115" x2="2286" y2="494" gradientUnits="userSpaceOnUse">
<stop offset="0.735577" stop-color="white"/>
<stop offset="1" stop-color="white" stop-opacity="0.06"/>
</linearGradient>
<linearGradient id="paint30_linear_3463_108" x1="2286" y1="115" x2="2286" y2="494" gradientUnits="userSpaceOnUse">
<stop offset="0.735577" stop-color="white"/>
<stop offset="1" stop-color="white" stop-opacity="0.06"/>
</linearGradient>
<linearGradient id="paint31_linear_3463_108" x1="2286" y1="115" x2="2286" y2="494" gradientUnits="userSpaceOnUse">
<stop offset="0.735577" stop-color="white"/>
<stop offset="1" stop-color="white" stop-opacity="0.06"/>
</linearGradient>
<linearGradient id="paint32_linear_3463_108" x1="2286" y1="115" x2="2286" y2="494" gradientUnits="userSpaceOnUse">
<stop offset="0.735577" stop-color="white"/>
<stop offset="1" stop-color="white" stop-opacity="0.06"/>
</linearGradient>
<linearGradient id="paint33_linear_3463_108" x1="2286" y1="115" x2="2286" y2="494" gradientUnits="userSpaceOnUse">
<stop offset="0.735577" stop-color="white"/>
<stop offset="1" stop-color="white" stop-opacity="0.06"/>
</linearGradient>
<linearGradient id="paint34_linear_3463_108" x1="2286" y1="115" x2="2286" y2="494" gradientUnits="userSpaceOnUse">
<stop offset="0.735577" stop-color="white"/>
<stop offset="1" stop-color="white" stop-opacity="0.06"/>
</linearGradient>
<linearGradient id="paint35_linear_3463_108" x1="2286" y1="115" x2="2286" y2="494" gradientUnits="userSpaceOnUse">
<stop offset="0.735577" stop-color="white"/>
<stop offset="1" stop-color="white" stop-opacity="0.06"/>
</linearGradient>
<linearGradient id="paint36_linear_3463_108" x1="2286" y1="115" x2="2286" y2="494" gradientUnits="userSpaceOnUse">
<stop offset="0.735577" stop-color="white"/>
<stop offset="1" stop-color="white" stop-opacity="0.06"/>
</linearGradient>
<linearGradient id="paint37_linear_3463_108" x1="2286" y1="115" x2="2286" y2="494" gradientUnits="userSpaceOnUse">
<stop offset="0.735577" stop-color="white"/>
<stop offset="1" stop-color="white" stop-opacity="0.06"/>
</linearGradient>
</defs>
</svg>