<svg xmlns="http://www.w3.org/2000/svg" width="2560" height="1440" viewBox="0 0 2560 1440" fill="none">
<rect x="357" y="359" width="4" height="4" fill="white"/>
<rect x="472" y="303" width="4" height="4" fill="white"/>
<rect x="284" y="233" width="4" height="4" fill="white"/>
<rect x="168" y="129" width="4" height="4" fill="white"/>
<rect x="136" y="465" width="4" height="4" fill="white"/>
<rect x="325" y="686" width="4" height="4" fill="white"/>
<rect x="617" y="560" width="4" height="4" fill="white"/>
<rect x="723" y="843" width="4" height="4" fill="white"/>
<rect x="502" y="802" width="4" height="4" fill="white"/>
<rect x="1005" y="465" width="4" height="4" fill="white"/>
<rect x="858" y="432" width="4" height="4" fill="white"/>
<rect x="882" y="623" width="4" height="4" fill="white"/>
<rect x="995" y="332" width="4" height="4" fill="white"/>
<rect x="1353" y="223" width="4" height="4" fill="white"/>
<rect x="1154" y="213" width="4" height="4" fill="white"/>
<rect x="1149" y="327" width="4" height="4" fill="white"/>
<rect x="1280" y="337" width="4" height="4" fill="white"/>
<rect x="1556" y="523" width="4" height="4" fill="white"/>
<rect x="1566" y="303" width="4" height="4" fill="white"/>
<rect x="1817" y="322" width="4" height="4" fill="white"/>
<rect x="1901" y="590" width="4" height="4" fill="white"/>
<rect x="2173" y="407" width="4" height="4" fill="white"/>
<rect x="2317" y="189" width="4" height="4" fill="white"/>
<rect x="2152" y="104" width="4" height="4" fill="white"/>
<rect x="2400" y="70" width="4" height="4" fill="white"/>
<rect x="2456" y="243" width="4" height="4" fill="white"/>
<rect x="2307" y="523" width="4" height="4" fill="white"/>
<rect x="2451" y="407" width="4" height="4" fill="white"/>
<rect x="2405" y="878" width="4" height="4" fill="white"/>
<rect x="2131" y="618" width="4" height="4" fill="white"/>
<rect x="2221" y="883" width="4" height="4" fill="white"/>
<rect x="2131" y="1244" width="4" height="4" fill="white"/>
<rect x="2337" y="1365" width="4" height="4" fill="white"/>
<rect x="1911" y="1244" width="4" height="4" fill="white"/>
<rect x="2018" y="1113" width="4" height="4" fill="white"/>
<rect x="1817" y="807" width="4" height="4" fill="white"/>
<rect x="1526" y="710" width="4" height="4" fill="white"/>
<rect x="1680" y="1029" width="4" height="4" fill="white"/>
<rect x="1363" y="1183" width="4" height="4" fill="white"/>
<rect x="1202" y="1039" width="4" height="4" fill="white"/>
<rect x="1368" y="807" width="4" height="4" fill="white"/>
<rect x="1159" y="475" width="4" height="4" fill="white"/>
<rect x="1169" y="600" width="4" height="4" fill="white"/>
<rect x="1067" y="760" width="4" height="4" fill="white"/>
<rect x="1005" y="1103" width="4" height="4" fill="white"/>
<rect x="985" y="1304" width="4" height="4" fill="white"/>
<rect x="858" y="1239" width="4" height="4" fill="white"/>
<rect x="708" y="1416" width="4" height="4" fill="white"/>
<rect x="778" y="145" width="4" height="4" fill="white"/>
<rect x="534" y="124" width="4" height="4" fill="white"/>
<rect x="718" y="298" width="4" height="4" fill="white"/>
<rect x="1117" y="80" width="4" height="4" fill="white"/>
<rect x="1452" y="114" width="4" height="4" fill="white"/>
<rect x="1748" y="145" width="4" height="4" fill="white"/>
<rect x="1950" y="233" width="4" height="4" fill="white"/>
<rect x="2405" y="1079" width="4" height="4" fill="white"/>
<rect x="2489" y="1360" width="4" height="4" fill="white"/>
<rect x="2023" y="1370" width="4" height="4" fill="white"/>
<rect x="1526" y="1350" width="4" height="4" fill="white"/>
<rect x="146" y="853" width="4" height="4" fill="white"/>
<rect x="315" y="971" width="4" height="4" fill="white"/>
<rect x="648" y="1055" width="4" height="4" fill="white"/>
<rect x="653" y="1314" width="4" height="4" fill="white"/>
<rect x="126" y="1406" width="4" height="4" fill="white"/>
<rect x="34" y="1254" width="4" height="4" fill="white"/>
</svg>